<?xml version="1.0" encoding="iso-8859-1"?>
<!-- Generator: Adobe Illustrator 18.0.0, SVG Export Plug-In . SVG Version: 6.00 Build 0)  -->
<!DOCTYPE svg PUBLIC "-//W3C//DTD SVG 1.1//EN" "http://www.w3.org/Graphics/SVG/1.1/DTD/svg11.dtd">
<svg version="1.1" id="Layer_1" xmlns="http://www.w3.org/2000/svg" xmlns:xlink="http://www.w3.org/1999/xlink" x="0px" y="0px"
	 viewBox="0 0 24 24" width="34px" height="34px" style="enable-background:new 0 0 24 24;" xml:space="preserve">
<path style="fill:#59B0F6;" d="M21.904,12.409L21.904,12.409c0.23-0.095,0.34-0.361,0.246-0.591l-2.976-7.212
	c-0.095-0.23-0.361-0.34-0.591-0.246l0,0c-0.23,0.095-0.34,0.361-0.246,0.591l2.976,7.212
	C21.408,12.393,21.674,12.504,21.904,12.409z"/>
<path style="fill:#59B0F6;" d="M21.583,15.83L21.583,15.83c0.231-0.093,0.343-0.358,0.25-0.589L16.751,2.663
	c-0.093-0.231-0.358-0.343-0.589-0.25l0,0c-0.231,0.093-0.343,0.358-0.25,0.589l5.082,12.579
	C21.087,15.811,21.352,15.923,21.583,15.83z"/>
<path style="fill:#59B0F6;" d="M4.858,19.363L4.858,19.363c-0.231,0.091-0.495-0.023-0.587-0.254l-2.869-7.255
	c-0.091-0.231,0.023-0.495,0.254-0.587l0,0c0.231-0.091,0.495,0.023,0.587,0.254l2.869,7.255
	C5.203,19.007,5.089,19.271,4.858,19.363z"/>
<path style="fill:#59B0F6;" d="M7.465,21.6L7.465,21.6c-0.231,0.093-0.496-0.019-0.589-0.25L1.794,8.772
	c-0.093-0.231,0.019-0.496,0.25-0.589l0,0C2.275,8.09,2.54,8.202,2.633,8.433l5.082,12.579C7.808,21.242,7.696,21.507,7.465,21.6z"
	/>
<rect x="14.107" y="19.767" transform="matrix(0.9272 -0.3746 0.3746 0.9272 -6.633 7.2572)" style="fill:#A6642A;" width="2.487" height="1.847"/>
<rect x="6.166" y="2.737" transform="matrix(0.9272 -0.3746 0.3746 0.9272 -0.5485 3.3316)" style="fill:#A6642A;" width="4.258" height="0.678"/>
<g>
	
		<rect x="6.475" y="3.512" transform="matrix(0.9272 -0.3746 0.3746 0.9272 -3.5659 5.2532)" style="fill:#FFF3E0;" width="10.509" height="16.573"/>
	<g>
		<path style="fill:#E38939;" d="M12.22,0.17L3.299,3.775c-0.743,0.3-1.106,1.154-0.805,1.898L9.486,22.98
			c0.301,0.744,1.155,1.107,1.898,0.806l8.922-3.605c0.743-0.3,1.106-1.153,0.805-1.898L14.118,0.975
			C13.817,0.232,12.964-0.13,12.22,0.17L12.22,0.17z M6.726,3.523L9.58,2.37c0.09-0.037,0.193,0.007,0.23,0.098
			c0.036,0.09-0.007,0.193-0.097,0.23L6.858,3.851c-0.09,0.037-0.193-0.007-0.23-0.097C6.592,3.662,6.636,3.56,6.726,3.523
			L6.726,3.523z M15.572,21.308c-0.374,0.151-0.798-0.029-0.949-0.403c-0.151-0.374,0.029-0.798,0.403-0.949
			c0.373-0.151,0.798,0.029,0.949,0.403C16.125,20.733,15.945,21.157,15.572,21.308L15.572,21.308z M19.706,17.514l-9.744,3.937
			L3.754,6.084l9.744-3.937L19.706,17.514z M19.706,17.514"/>
	</g>
</g>
<g>
</g>
<g>
</g>
<g>
</g>
<g>
</g>
<g>
</g>
<g>
</g>
</svg>
